# xmcd CD database file
#
# Track frame offsets:
#	150
#	16770
#	37177
#	56624
#	69641
#	86567
#	104618
#	123979
#	136228
#	155415
#	177143
#	195554
#	217621
#	237170
#	251767
#	271136
#	297031
#	313830
#	329071
#
# Disc length: 4636 seconds
#
# Revision: 3
# Processed by: cddbd v1.5.2PL0 Copyright (c) Steve Scherf et al.
# Submitted via: CDex 1.51
#
DISCID=11121a13
DTITLE=Joe Jackson - The very best of 2007
DYEAR=2007
DGENRE=Blues
TTITLE0=Is She Really Going Out With H
TTITLE1=Fools In Love
TTITLE2=Sunday Papers
TTITLE3=Got The Time
TTITLE4=It's Different For Girls
TTITLE5=I'm The Man
TTITLE6=Beat Crazy
TTITLE7=Jumpin' Jive
TTITLE8=Steppin' Out
TTITLE9=Breaking Us In Two
TTITLE10=Real Men
TTITLE11=You Can't Get What You Want (T
TTITLE12=Be My Number Two
TTITLE13=Home Town
TTITLE14=Down To London
TTITLE15=Nineteen Forever
TTITLE16=Stranger Than Fiction
TTITLE17=Awkward Age
TTITLE18=Love At First Sight
EXTD=YEAR: 2007
EXTT0=
EXTT1=
EXTT2=
EXTT3=
EXTT4=
EXTT5=
EXTT6=
EXTT7=
EXTT8=
EXTT9=
EXTT10=
EXTT11=
EXTT12=
EXTT13=
EXTT14=
EXTT15=
EXTT16=
EXTT17=
EXTT18=
PLAYORDER=
